<svg width="34" height="34" viewBox="0 0 34 34" fill="none" xmlns="http://www.w3.org/2000/svg">
<path fill-rule="evenodd" clip-rule="evenodd" d="M0 16.875C0 7.55522 7.55522 0 16.875 0C26.1948 0 33.75 7.55522 33.75 16.875C33.75 26.1948 26.1948 33.75 16.875 33.75C7.55522 33.75 0 26.1948 0 16.875ZM16.875 2.25C8.79784 2.25 2.25 8.79784 2.25 16.875C2.25 24.9522 8.79784 31.5 16.875 31.5C24.9522 31.5 31.5 24.9522 31.5 16.875C31.5 8.79784 24.9522 2.25 16.875 2.25Z" fill="white"/>
<path fill-rule="evenodd" clip-rule="evenodd" d="M14.8952 10.9088C13.9804 10.3006 12.9375 11.0058 12.9375 11.7704V21.9798C12.9375 22.7443 13.9804 23.4496 14.8952 22.8414L22.5737 17.7367C23.2254 17.3035 23.2254 16.4467 22.5737 16.0135L14.8952 10.9088ZM10.6875 11.7704C10.6875 8.95764 13.9454 7.57553 16.1409 9.03504L23.8194 14.1398C25.8102 15.4632 25.8102 18.2869 23.8194 19.6104L16.1409 24.7151C13.9454 26.1746 10.6875 24.7925 10.6875 21.9798V11.7704Z" fill="#44A4CD"/>
</svg>
