<svg width="26" height="26" viewBox="0 0 26 26" fill="none" xmlns="http://www.w3.org/2000/svg">
<g clip-path="url(#clip0_1536_1653)">
<path fill-rule="evenodd" clip-rule="evenodd" d="M0.524215 18.9019L9.60075 3.18085C10.2788 2.00664 11.5466 1.21582 13 1.21582C14.4534 1.21582 15.7212 2.00664 16.3992 3.18085L25.4757 18.9019C25.8086 19.4784 26 20.1468 26 20.8603C26 23.0271 24.2434 24.7839 22.0764 24.7839H13H3.92356C1.75662 24.7839 0 23.0271 0 20.8603C0 20.1468 0.191395 19.4784 0.524215 18.9019Z" fill="#525A61"/>
<path fill-rule="evenodd" clip-rule="evenodd" d="M20.8312 23.2148C20.8312 23.2148 20.8312 23.2148 20.8312 23.2148H3.92443C2.62651 23.2148 1.57031 22.1586 1.57031 20.8606C1.57031 20.4484 1.67914 20.0425 1.88419 19.6867L10.9606 3.96587C11.3812 3.23767 12.1628 2.78516 13.0009 2.78516C13.0234 2.78516 13.0459 2.78566 13.0684 2.78673C13.0687 2.78675 13.0691 2.78676 13.0695 2.78678C13.8815 2.81018 14.6322 3.25737 15.0411 3.96588L24.1175 19.6867C24.3226 20.0425 24.4315 20.4484 24.4315 20.8607C24.4315 22.1586 23.3753 23.2148 22.0774 23.2148H20.8312L20.8312 23.2148Z" fill="#FFD764"/>
<path fill-rule="evenodd" clip-rule="evenodd" d="M13.0016 20.5991C13.0008 20.5991 13.0001 20.5991 12.9993 20.5991C12.2768 20.5991 11.6914 20.0137 11.6914 19.2913C11.6914 18.5688 12.2768 17.9834 12.9993 17.9834C13.7217 17.9834 14.3071 18.5688 14.3071 19.2912C14.3071 20.0129 13.723 20.5978 13.0016 20.5991Z" fill="#525A61"/>
<path fill-rule="evenodd" clip-rule="evenodd" d="M12.9993 16.4144C12.2768 16.4144 11.6914 15.8285 11.6914 15.1066V8.0442C11.6914 7.32173 12.2768 6.73633 12.9993 6.73633C13.7217 6.73633 14.3071 7.32173 14.3071 8.0442V15.1066C14.3071 15.8285 13.7217 16.4144 12.9993 16.4144Z" fill="#525A61"/>
</g>
<defs>
<clipPath id="clip0_1536_1653">
<rect width="26" height="26" fill="white"/>
</clipPath>
</defs>
</svg>
