<svg width="446" height="100" viewBox="0 0 446 100" fill="none" xmlns="http://www.w3.org/2000/svg">
<path d="M327.068 16.7179C323.845 31.7212 311.957 44.5097 297.276 48.8678C279.658 54.1547 260.823 47.8676 243.85 40.7946C226.877 33.7931 209.188 25.7914 190.926 27.7918C168.868 30.2209 151.179 46.4387 135.567 62.1565C119.954 77.8742 103.268 94.735 81.4966 99.0217C57.1471 103.808 31.5085 90.5198 17.2569 70.3011C2.504 49.4394 -4.22788 22.0048 2.7905 0H327.211C328.286 5.5012 328.286 11.2167 327.068 16.7179Z" fill="url(#paint0_linear_1503_1068)" fill-opacity="0.2"/>
<path d="M402.699 0C391.966 24.8224 366.382 42.8351 339.843 41.8832C319.699 41.151 300.585 30.8999 280.441 30.7534C236.773 30.5338 201.559 77.03 157.963 73.5886C137.599 71.9777 119.22 59.1637 106.061 42.9816C95.6217 30.1676 87.976 15.2303 80.9919 0H36C47.9096 31.266 72.023 57.4064 101.724 71.0258C133.703 85.6703 171.637 85.6703 203.617 70.9525C215.894 65.3144 227.436 57.5528 240.375 53.7453C275.295 43.4941 311.539 63.7035 347.856 64.6554C385.864 65.6073 423.578 43.4209 442.177 9.15281C443.721 6.37035 445.044 3.22179 446 0.0732224H402.699V0Z" fill="url(#paint1_linear_1503_1068)" fill-opacity="0.2"/>
<defs>
<linearGradient id="paint0_linear_1503_1068" x1="316.807" y1="-6.41464e-06" x2="28.3458" y2="87.2905" gradientUnits="userSpaceOnUse">
<stop stop-color="#75F6FE"/>
<stop offset="1" stop-color="#5D81FF"/>
</linearGradient>
<linearGradient id="paint1_linear_1503_1068" x1="104.5" y1="8.69383e-06" x2="381" y2="67" gradientUnits="userSpaceOnUse">
<stop stop-color="#2955F3"/>
<stop offset="1" stop-color="#49D3FF"/>
</linearGradient>
</defs>
</svg>
